<svg width="44" height="44" viewBox="0 0 44 44" fill="none" xmlns="http://www.w3.org/2000/svg">
<path d="M11 29.3334H25.6667V25.6667H11V29.3334ZM29.3333 29.3334H33V25.6667H29.3333V29.3334ZM11 22H14.6667V18.3334H11V22ZM18.3333 22H33V18.3334H18.3333V22ZM7.33334 36.6667C6.32501 36.6667 5.46181 36.3077 4.74376 35.5896C4.0257 34.8716 3.66667 34.0084 3.66667 33V11C3.66667 9.99171 4.0257 9.12851 4.74376 8.41046C5.46181 7.6924 6.32501 7.33337 7.33334 7.33337H36.6667C37.675 7.33337 38.5382 7.6924 39.2563 8.41046C39.9743 9.12851 40.3333 9.99171 40.3333 11V33C40.3333 34.0084 39.9743 34.8716 39.2563 35.5896C38.5382 36.3077 37.675 36.6667 36.6667 36.6667H7.33334ZM7.33334 33H36.6667V11H7.33334V33Z" fill="#E8EAED"/>
</svg>
