<svg width="44" height="44" viewBox="0 0 44 44" fill="none" xmlns="http://www.w3.org/2000/svg">
<path d="M6 43.9542V35.2458L22.4083 18.8375L19.75 16.2708L22.4083 13.7042L25.8917 17.1875L31.575 11.5042C31.7278 11.3514 31.9188 11.2292 32.1479 11.1375C32.3771 11.0458 32.6139 11 32.8583 11C33.1028 11 33.3319 11.0458 33.5458 11.1375C33.7597 11.2292 33.9583 11.3514 34.1417 11.5042L38.45 15.8125C38.6028 15.9958 38.725 16.1944 38.8167 16.4083C38.9083 16.6222 38.9542 16.8514 38.9542 17.0958C38.9542 17.3403 38.9083 17.5771 38.8167 17.8063C38.725 18.0354 38.6028 18.2264 38.45 18.3792L32.8125 24.0167L36.2958 27.5917L33.6833 30.2042L31.1167 27.5458L14.7083 43.9542H6ZM9.66667 40.2875H13.2417L28.4583 24.9792L24.975 21.4958L9.66667 36.7125V40.2875ZM30.1542 21.4958L34.5542 17.0958L32.8583 15.4L28.4583 19.8L30.1542 21.4958Z" fill="#E8EAED"/>
</svg>
