<svg width="44" height="44" viewBox="0 0 44 44" fill="none" xmlns="http://www.w3.org/2000/svg">
<path d="M22 29.3333C24.2917 29.3333 26.2396 28.5312 27.8437 26.9271C29.4479 25.3229 30.25 23.375 30.25 21.0833C30.25 18.7916 29.4479 16.8437 27.8437 15.2396C26.2396 13.6354 24.2917 12.8333 22 12.8333C19.7083 12.8333 17.7604 13.6354 16.1562 15.2396C14.5521 16.8437 13.75 18.7916 13.75 21.0833C13.75 23.375 14.5521 25.3229 16.1562 26.9271C17.7604 28.5312 19.7083 29.3333 22 29.3333ZM22 26.0333C20.625 26.0333 19.4562 25.5521 18.4937 24.5896C17.5312 23.6271 17.05 22.4583 17.05 21.0833C17.05 19.7083 17.5312 18.5396 18.4937 17.5771C19.4562 16.6146 20.625 16.1333 22 16.1333C23.375 16.1333 24.5437 16.6146 25.5062 17.5771C26.4687 18.5396 26.95 19.7083 26.95 21.0833C26.95 22.4583 26.4687 23.6271 25.5062 24.5896C24.5437 25.5521 23.375 26.0333 22 26.0333ZM22 34.8333C17.5389 34.8333 13.475 33.5882 9.80833 31.0979C6.14166 28.6076 3.48333 25.2694 1.83333 21.0833C3.48333 16.8972 6.14166 13.559 9.80833 11.0687C13.475 8.57845 17.5389 7.33331 22 7.33331C26.4611 7.33331 30.525 8.57845 34.1917 11.0687C37.8583 13.559 40.5167 16.8972 42.1667 21.0833C40.5167 25.2694 37.8583 28.6076 34.1917 31.0979C30.525 33.5882 26.4611 34.8333 22 34.8333ZM22 31.1666C25.4528 31.1666 28.6229 30.2576 31.5104 28.4396C34.3979 26.6215 36.6055 24.1694 38.1333 21.0833C36.6055 17.9972 34.3979 15.5451 31.5104 13.7271C28.6229 11.909 25.4528 11 22 11C18.5472 11 15.3771 11.909 12.4896 13.7271C9.60208 15.5451 7.39444 17.9972 5.86666 21.0833C7.39444 24.1694 9.60208 26.6215 12.4896 28.4396C15.3771 30.2576 18.5472 31.1666 22 31.1666Z" fill="#E8EAED"/>
</svg>
