<svg width="37" height="26" viewBox="0 0 37 26" fill="none" xmlns="http://www.w3.org/2000/svg">
<path d="M4.6475 25.6667C3.08917 25.6667 1.88222 25.1243 1.02667 24.0396C0.171111 22.9549 -0.149722 21.6333 0.0641667 20.075L1.98917 6.325C2.26417 4.49167 3.08153 2.97917 4.44125 1.7875C5.80097 0.595833 7.3975 0 9.23083 0H27.3808C29.2142 0 30.8107 0.595833 32.1704 1.7875C33.5301 2.97917 34.3475 4.49167 34.6225 6.325L36.5475 20.075C36.7614 21.6333 36.4406 22.9549 35.585 24.0396C34.7294 25.1243 33.5225 25.6667 31.9642 25.6667C31.3225 25.6667 30.7267 25.5521 30.1767 25.3229C29.6267 25.0937 29.1225 24.75 28.6642 24.2917L24.5392 20.1667H12.0725L7.9475 24.2917C7.48917 24.75 6.985 25.0937 6.435 25.3229C5.885 25.5521 5.28917 25.6667 4.6475 25.6667ZM5.38083 21.725L10.6058 16.5H26.0058L31.2308 21.725C31.2919 21.7861 31.5364 21.8778 31.9642 22C32.3003 22 32.5676 21.9007 32.7663 21.7021C32.9649 21.5035 33.0336 21.2361 32.9725 20.9L30.9558 6.78333C30.8336 5.89722 30.4364 5.15625 29.7642 4.56042C29.0919 3.96458 28.2975 3.66667 27.3808 3.66667H9.23083C8.31417 3.66667 7.51972 3.96458 6.8475 4.56042C6.17528 5.15625 5.77806 5.89722 5.65583 6.78333L3.63917 20.9C3.57806 21.2361 3.64681 21.5035 3.84542 21.7021C4.04403 21.9007 4.31139 22 4.6475 22C4.70861 22 4.95306 21.9083 5.38083 21.725ZM27.4725 14.6667C27.9919 14.6667 28.4274 14.491 28.7787 14.1396C29.1301 13.7882 29.3058 13.3528 29.3058 12.8333C29.3058 12.3139 29.1301 11.8785 28.7787 11.5271C28.4274 11.1757 27.9919 11 27.4725 11C26.9531 11 26.5176 11.1757 26.1663 11.5271C25.8149 11.8785 25.6392 12.3139 25.6392 12.8333C25.6392 13.3528 25.8149 13.7882 26.1663 14.1396C26.5176 14.491 26.9531 14.6667 27.4725 14.6667ZM23.8058 9.16667C24.3253 9.16667 24.7607 8.99097 25.1121 8.63958C25.4635 8.28819 25.6392 7.85278 25.6392 7.33333C25.6392 6.81389 25.4635 6.37847 25.1121 6.02708C24.7607 5.67569 24.3253 5.5 23.8058 5.5C23.2864 5.5 22.851 5.67569 22.4996 6.02708C22.1482 6.37847 21.9725 6.81389 21.9725 7.33333C21.9725 7.85278 22.1482 8.28819 22.4996 8.63958C22.851 8.99097 23.2864 9.16667 23.8058 9.16667ZM10.5142 14.6667H13.2642V11.4583H16.4725V8.70833H13.2642V5.5H10.5142V8.70833H7.30583V11.4583H10.5142V14.6667Z" fill="#E8EAED"/>
</svg>
