<svg width="44" height="44" viewBox="0 0 44 44" fill="none" xmlns="http://www.w3.org/2000/svg">
<path d="M22 40.3333C19.4639 40.3333 17.0806 39.8521 14.85 38.8896C12.6194 37.9271 10.6792 36.6208 9.02917 34.9708C7.37917 33.3208 6.07292 31.3806 5.11042 29.15C4.14792 26.9194 3.66667 24.5361 3.66667 22C3.66667 19.4639 4.14792 17.0806 5.11042 14.85C6.07292 12.6194 7.37917 10.6792 9.02917 9.02916C10.6792 7.37916 12.6194 6.07291 14.85 5.11041C17.0806 4.14791 19.4639 3.66666 22 3.66666C24.5361 3.66666 26.9194 4.14791 29.15 5.11041C31.3806 6.07291 33.3208 7.37916 34.9708 9.02916C36.6208 10.6792 37.9271 12.6194 38.8896 14.85C39.8521 17.0806 40.3333 19.4639 40.3333 22C40.3333 24.5361 39.8521 26.9194 38.8896 29.15C37.9271 31.3806 36.6208 33.3208 34.9708 34.9708C33.3208 36.6208 31.3806 37.9271 29.15 38.8896C26.9194 39.8521 24.5361 40.3333 22 40.3333ZM22 36.6667C26.0944 36.6667 29.5625 35.2458 32.4042 32.4042C35.2458 29.5625 36.6667 26.0944 36.6667 22C36.6667 17.9056 35.2458 14.4375 32.4042 11.5958C29.5625 8.75416 26.0944 7.33333 22 7.33333C17.9056 7.33333 14.4375 8.75416 11.5958 11.5958C8.75417 14.4375 7.33333 17.9056 7.33333 22C7.33333 26.0944 8.75417 29.5625 11.5958 32.4042C14.4375 35.2458 17.9056 36.6667 22 36.6667ZM22 33C18.9444 33 16.3472 31.9306 14.2083 29.7917C12.0694 27.6528 11 25.0556 11 22C11 18.9444 12.0694 16.3472 14.2083 14.2083C16.3472 12.0694 18.9444 11 22 11C25.0556 11 27.6528 12.0694 29.7917 14.2083C31.9306 16.3472 33 18.9444 33 22C33 25.0556 31.9306 27.6528 29.7917 29.7917C27.6528 31.9306 25.0556 33 22 33ZM22 29.3333C24.0167 29.3333 25.7431 28.6153 27.1792 27.1792C28.6153 25.7431 29.3333 24.0167 29.3333 22C29.3333 19.9833 28.6153 18.2569 27.1792 16.8208C25.7431 15.3847 24.0167 14.6667 22 14.6667C19.9833 14.6667 18.2569 15.3847 16.8208 16.8208C15.3847 18.2569 14.6667 19.9833 14.6667 22C14.6667 24.0167 15.3847 25.7431 16.8208 27.1792C18.2569 28.6153 19.9833 29.3333 22 29.3333ZM22 25.6667C20.9917 25.6667 20.1285 25.3076 19.4104 24.5896C18.6924 23.8715 18.3333 23.0083 18.3333 22C18.3333 20.9917 18.6924 20.1285 19.4104 19.4104C20.1285 18.6924 20.9917 18.3333 22 18.3333C23.0083 18.3333 23.8715 18.6924 24.5896 19.4104C25.3076 20.1285 25.6667 20.9917 25.6667 22C25.6667 23.0083 25.3076 23.8715 24.5896 24.5896C23.8715 25.3076 23.0083 25.6667 22 25.6667Z" fill="#E8EAED"/>
</svg>
