<svg width="44" height="44" viewBox="0 0 44 44" fill="none" xmlns="http://www.w3.org/2000/svg">
<path d="M12.8333 33C9.77779 33 7.18057 31.9306 5.04168 29.7917C2.90279 27.6528 1.83334 25.0556 1.83334 22C1.83334 18.9444 2.90279 16.3472 5.04168 14.2083C7.18057 12.0694 9.77779 11 12.8333 11H31.1667C34.2222 11 36.8195 12.0694 38.9583 14.2083C41.0972 16.3472 42.1667 18.9444 42.1667 22C42.1667 25.0556 41.0972 27.6528 38.9583 29.7917C36.8195 31.9306 34.2222 33 31.1667 33H12.8333ZM12.8333 29.3333H31.1667C33.1833 29.3333 34.9097 28.6153 36.3458 27.1792C37.782 25.7431 38.5 24.0167 38.5 22C38.5 19.9833 37.782 18.2569 36.3458 16.8208C34.9097 15.3847 33.1833 14.6667 31.1667 14.6667H12.8333C10.8167 14.6667 9.09029 15.3847 7.65418 16.8208C6.21807 18.2569 5.50001 19.9833 5.50001 22C5.50001 24.0167 6.21807 25.7431 7.65418 27.1792C9.09029 28.6153 10.8167 29.3333 12.8333 29.3333ZM31.1667 27.5C32.6945 27.5 33.9931 26.9653 35.0625 25.8958C36.132 24.8264 36.6667 23.5278 36.6667 22C36.6667 20.4722 36.132 19.1736 35.0625 18.1042C33.9931 17.0347 32.6945 16.5 31.1667 16.5C29.6389 16.5 28.3403 17.0347 27.2708 18.1042C26.2014 19.1736 25.6667 20.4722 25.6667 22C25.6667 23.5278 26.2014 24.8264 27.2708 25.8958C28.3403 26.9653 29.6389 27.5 31.1667 27.5Z" fill="#E8EAED"/>
</svg>
